# xmcd CD database file
#
# Track frame offsets:
#	150
#	14672
#	26587
#	40262
#	52295
#	70400
#	82442
#	94310
#	114270
#	126960
#	139540
#	152662
#
# Disc length: 2162 seconds
#
# Revision: 0
# Processed by: cddbd v1.5.2PL0 Copyright (c) Steve Scherf et al.
# Submitted via: CDex 1.70beta2
#
DISCID=ad08700c
DTITLE=Varios - 2- Grandes Classicos da Musica Sertaneja
DYEAR=2009
DGENRE=Country
TTITLE0=01 - Couro de Boi
TTITLE1=02 - Gente da Minha Terra
TTITLE2=03 - Dama de Vermelho
TTITLE3=04 - Mocinha da Cidade
TTITLE4=05 - Igrejinha da Serra
TTITLE5=06 - A mulher e o Trem
TTITLE6=07 - Saudades de Matao
TTITLE7=08 - Jamais Terei Ilusao
TTITLE8=09 - Velho Amor
TTITLE9=10 - Ilusao da Vida
TTITLE10=11 - Nossa Senhora de Maio
TTITLE11=12 - Alma de Boemio
EXTD=YEAR: 2009
EXTT0=
EXTT1=
EXTT2=
EXTT3=
EXTT4=
EXTT5=
EXTT6=
EXTT7=
EXTT8=
EXTT9=
EXTT10=
EXTT11=
PLAYORDER=
